<svg xmlns="http://www.w3.org/2000/svg" height="24px" viewBox="0 -960 960 960" width="24px" fill="#6270f3"><path d="M381.04-533.35Q340-574.38 340-632.31q0-57.92 41.04-98.96 41.04-41.04 98.96-41.04 57.92 0 98.96 41.04Q620-690.23 620-632.31q0 57.93-41.04 98.96-41.04 41.04-98.96 41.04-57.92 0-98.96-41.04ZM180-187.69v-88.93q0-29.38 15.96-54.42 15.96-25.04 42.66-38.5 58.15-28.31 117.15-42.84 59-14.54 119.23-15.31h8.61q-7.15 13.61-10.53 27.77-3.39 14.15-3.39 29.61 0 30.39 10.5 59.89t36.89 55.88l67.84 66.85H180Zm528.69 0L579.46-316.92q-12.23-12.24-17.15-25.89-4.92-13.65-4.92-27.5 0-29.69 21.07-52.77 21.08-23.07 54.39-23.07 26.07 0 40.92 12.03 14.84 12.04 34.92 32.12 18.85-18.85 34-31.5 15.16-12.65 41.85-12.65 34.3 0 54.88 23.38Q860-399.39 860-369.69q0 13.84-5.42 27.69-5.43 13.84-16.66 25.08L708.69-187.69Z"/></svg>